HIERARCHY
ROOT Hips
{
	OFFSET 0.000000 83.214638 0.000000
	CHANNELS 6 Xposition Yposition Zposition Xrotation Yrotation Zrotation
	JOINT Pelvis
	{
		OFFSET 0.000000 0.000000 0.000000
		CHANNELS 3 Xrotation Yrotation Zrotation
		JOINT LeftUpLeg
		{
			OFFSET 8.479700 -4.795502 -0.379100
			CHANNELS 3 Xrotation Yrotation Zrotation
			JOINT LeftLeg
			{
				OFFSET 0.024144 -32.555107 0.112900
				CHANNELS 3 Xrotation Yrotation Zrotation
				JOINT LeftFoot
				{
					OFFSET -0.024144 -32.638630 -3.012600
					CHANNELS 3 Xrotation Yrotation Zrotation
					JOINT LeftToeBase
					{
						OFFSET 0.970200 -13.225400 11.864200
						CHANNELS 3 Xrotation Yrotation Zrotation
						End Site
						{
							OFFSET 0.000000 12.319262 0.000000
						}
					}
					JOINT LFootTongue
					{
						OFFSET 1.142400 -1.059800 6.665200
						CHANNELS 3 Xrotation Yrotation Zrotation
						End Site
						{
							OFFSET 0.000000 12.319262 0.000000
						}
					}
				}
				JOINT LeftPantLeg
				{
					OFFSET 0.918482 -16.533964 -2.284700
					CHANNELS 3 Xrotation Yrotation Zrotation
					End Site
					{
						OFFSET 0.350399 24.744368 0.000000
					}
				}
			}
		}
		JOINT RightUpLeg
		{
			OFFSET -8.479700 -4.795502 -0.379100
			CHANNELS 3 Xrotation Yrotation Zrotation
			JOINT RightLeg
			{
				OFFSET -0.023144 -32.555092 0.112900
				CHANNELS 3 Xrotation Yrotation Zrotation
				JOINT RightFoot
				{
					OFFSET 0.023144 -32.638641 -3.012700
					CHANNELS 3 Xrotation Yrotation Zrotation
					JOINT RightToeBase
					{
						OFFSET -0.970200 -13.225400 11.864200
						CHANNELS 3 Xrotation Yrotation Zrotation
						End Site
						{
							OFFSET 0.000000 12.319244 0.000000
						}
					}
					JOINT RFootTongue
					{
						OFFSET -1.142200 -1.059800 6.665200
						CHANNELS 3 Xrotation Yrotation Zrotation
						End Site
						{
							OFFSET 0.000000 12.319243 0.000000
						}
					}
				}
				JOINT RightPantLeg
				{
					OFFSET -0.919482 -16.533978 -2.284800
					CHANNELS 3 Xrotation Yrotation Zrotation
					End Site
					{
						OFFSET -0.350400 24.744419 0.000000
					}
				}
			}
		}
	}
	JOINT Spine
	{
		OFFSET 0.000000 7.722000 1.166200
		CHANNELS 3 Xrotation Yrotation Zrotation
		JOINT Spine1
		{
			OFFSET 0.000000 12.024101 0.248800
			CHANNELS 3 Xrotation Yrotation Zrotation
			JOINT Spine2
			{
				OFFSET 0.000000 11.502998 -0.491200
				CHANNELS 3 Xrotation Yrotation Zrotation
				JOINT Neck
				{
					OFFSET 0.000000 18.430702 -3.123100
					CHANNELS 3 Xrotation Yrotation Zrotation
					JOINT Head
					{
						OFFSET 0.000000 9.051102 1.034000
						CHANNELS 3 Xrotation Yrotation Zrotation
						JOINT HairB
						{
							OFFSET 0.208400 24.786102 24.822300
							CHANNELS 3 Xrotation Yrotation Zrotation
							End Site
							{
								OFFSET 0.000000 32.263779 0.000000
							}
						}
						JOINT HairA
						{
							OFFSET -7.081100 24.428299 23.196600
							CHANNELS 3 Xrotation Yrotation Zrotation
							End Site
							{
								OFFSET 0.000000 32.263779 0.000000
							}
						}
						JOINT Hat
						{
							OFFSET 16.728800 15.048294 -15.439601
							CHANNELS 3 Xrotation Yrotation Zrotation
							End Site
							{
								OFFSET 0.000000 32.263779 0.000000
							}
						}
					}
				}
				JOINT LeftShoulder
				{
					OFFSET 6.197800 13.665199 -4.064700
					CHANNELS 3 Xrotation Yrotation Zrotation
					JOINT LeftArm
					{
						OFFSET 7.778100 -0.187103 -1.709300
						CHANNELS 3 Xrotation Yrotation Zrotation
						JOINT LeftForeArm
						{
							OFFSET 22.049376 0.000000 0.000000
							CHANNELS 3 Xrotation Yrotation Zrotation
							JOINT LeftHand
							{
								OFFSET 23.009392 0.000000 0.000000
								CHANNELS 3 Xrotation Yrotation Zrotation
								JOINT LeftHandThumb1
								{
									OFFSET 3.507191 -2.063065 3.133727
									CHANNELS 3 Xrotation Yrotation Zrotation
									JOINT LeftHandThumb2
									{
										OFFSET 3.101337 -1.790558 1.790558
										CHANNELS 3 Xrotation Yrotation Zrotation
										JOINT LeftHandThumb3
										{
											OFFSET 3.058640 -1.765907 1.765906
											CHANNELS 3 Xrotation Yrotation Zrotation
											End Site
											{
												OFFSET -0.415260 3.926476 -0.049563
											}
										}
									}
								}
								JOINT LeftHandIndex1
								{
									OFFSET 11.334419 -0.901459 3.706815
									CHANNELS 3 Xrotation Yrotation Zrotation
									JOINT LeftHandIndex2
									{
										OFFSET 3.283112 0.000000 0.000000
										CHANNELS 3 Xrotation Yrotation Zrotation
										JOINT LeftHandIndex3
										{
											OFFSET 3.323853 0.000000 0.000000
											CHANNELS 3 Xrotation Yrotation Zrotation
											End Site
											{
												OFFSET -1.135597 3.097809 0.402452
											}
										}
									}
								}
								JOINT LeftHandMiddle1
								{
									OFFSET 11.335861 0.000000 0.000000
									CHANNELS 3 Xrotation Yrotation Zrotation
									JOINT LeftHandMiddle2
									{
										OFFSET 3.410492 0.000000 0.000000
										CHANNELS 3 Xrotation Yrotation Zrotation
										JOINT LeftHandMiddle3
										{
											OFFSET 3.312172 0.000000 0.000000
											CHANNELS 3 Xrotation Yrotation Zrotation
											End Site
											{
												OFFSET -1.150200 3.080154 0.400270
											}
										}
									}
								}
								JOINT LeftHandRing1
								{
									OFFSET 11.514786 -0.013176 -3.003090
									CHANNELS 3 Xrotation Yrotation Zrotation
									JOINT LeftHandRing2
									{
										OFFSET 3.053307 0.000000 0.000000
										CHANNELS 3 Xrotation Yrotation Zrotation
										JOINT LeftHandRing3
										{
											OFFSET 3.295807 0.000000 0.000000
											CHANNELS 3 Xrotation Yrotation Zrotation
											End Site
											{
												OFFSET -1.281006 3.013344 0.375733
											}
										}
									}
								}
								JOINT LeftHandPinky1
								{
									OFFSET 10.518692 -0.960396 -5.730441
									CHANNELS 3 Xrotation Yrotation Zrotation
									JOINT LeftHandPinky2
									{
										OFFSET 2.861649 0.000000 0.000000
										CHANNELS 3 Xrotation Yrotation Zrotation
										JOINT LeftHandPinky3
										{
											OFFSET 2.863380 0.000000 0.000000
											CHANNELS 3 Xrotation Yrotation Zrotation
											End Site
											{
												OFFSET -0.843597 2.711159 0.369971
											}
										}
									}
								}
							}
							JOINT LSleeve
							{
								OFFSET 6.676277 -0.344902 -1.011730
								CHANNELS 3 Xrotation Yrotation Zrotation
								End Site
								{
									OFFSET 0.000000 14.885353 0.000000
								}
							}
						}
					}
				}
				JOINT RightShoulder
				{
					OFFSET -6.197800 13.665199 -4.064700
					CHANNELS 3 Xrotation Yrotation Zrotation
					JOINT RightArm
					{
						OFFSET -7.778100 -0.187103 -1.709300
						CHANNELS 3 Xrotation Yrotation Zrotation
						JOINT RightForeArm
						{
							OFFSET -22.049376 0.000000 0.000000
							CHANNELS 3 Xrotation Yrotation Zrotation
							JOINT RightHand
							{
								OFFSET -23.009392 0.000000 0.000000
								CHANNELS 3 Xrotation Yrotation Zrotation
								JOINT RightHandThumb1
								{
									OFFSET -3.507191 -2.063065 3.133727
									CHANNELS 3 Xrotation Yrotation Zrotation
									JOINT RightHandThumb2
									{
										OFFSET -3.101337 -1.790558 1.790558
										CHANNELS 3 Xrotation Yrotation Zrotation
										JOINT RightHandThumb3
										{
											OFFSET -3.058640 -1.765907 1.765906
											CHANNELS 3 Xrotation Yrotation Zrotation
											End Site
											{
												OFFSET 0.415260 3.926476 -0.049563
											}
										}
									}
								}
								JOINT RightHandIndex1
								{
									OFFSET -11.334419 -0.901459 3.706815
									CHANNELS 3 Xrotation Yrotation Zrotation
									JOINT RightHandIndex2
									{
										OFFSET -3.283112 0.000000 0.000000
										CHANNELS 3 Xrotation Yrotation Zrotation
										JOINT RightHandIndex3
										{
											OFFSET -3.323853 0.000000 0.000000
											CHANNELS 3 Xrotation Yrotation Zrotation
											End Site
											{
												OFFSET 1.135597 3.097809 0.402452
											}
										}
									}
								}
								JOINT RightHandMiddle1
								{
									OFFSET -11.335861 0.000000 0.000000
									CHANNELS 3 Xrotation Yrotation Zrotation
									JOINT RightHandMiddle2
									{
										OFFSET -3.410492 0.000000 0.000000
										CHANNELS 3 Xrotation Yrotation Zrotation
										JOINT RightHandMiddle3
										{
											OFFSET -3.312172 0.000000 0.000000
											CHANNELS 3 Xrotation Yrotation Zrotation
											End Site
											{
												OFFSET 1.150200 3.080154 0.400270
											}
										}
									}
								}
								JOINT RightHandRing1
								{
									OFFSET -11.514786 -0.013176 -3.003090
									CHANNELS 3 Xrotation Yrotation Zrotation
									JOINT RightHandRing2
									{
										OFFSET -3.053307 0.000000 0.000000
										CHANNELS 3 Xrotation Yrotation Zrotation
										JOINT RightHandRing3
										{
											OFFSET -3.295807 0.000000 0.000000
											CHANNELS 3 Xrotation Yrotation Zrotation
											End Site
											{
												OFFSET 1.281006 3.013344 0.375733
											}
										}
									}
								}
								JOINT RightHandPinky1
								{
									OFFSET -10.518692 -0.960396 -5.730441
									CHANNELS 3 Xrotation Yrotation Zrotation
									JOINT RightHandPinky2
									{
										OFFSET -2.861649 0.000000 0.000000
										CHANNELS 3 Xrotation Yrotation Zrotation
										JOINT RightHandPinky3
										{
											OFFSET -2.863380 0.000000 0.000000
											CHANNELS 3 Xrotation Yrotation Zrotation
											End Site
											{
												OFFSET 0.843597 2.711159 0.369971
											}
										}
									}
								}
							}
							JOINT RSleeve
							{
								OFFSET -6.676277 -0.344902 -1.011730
								CHANNELS 3 Xrotation Yrotation Zrotation
								End Site
								{
									OFFSET 0.000000 14.885353 0.000000
								}
							}
						}
					}
				}
				JOINT Backpack
				{
					OFFSET 0.000000 -2.471497 36.677502
					CHANNELS 3 Xrotation Yrotation Zrotation
					End Site
					{
						OFFSET 0.000000 20.427315 0.000000
					}
				}
				JOINT Hood
				{
					OFFSET 0.000000 18.754097 -10.431000
					CHANNELS 3 Xrotation Yrotation Zrotation
					JOINT Hood1
					{
						OFFSET 0.000000 -5.011002 -7.685901
						CHANNELS 3 Xrotation Yrotation Zrotation
						End Site
						{
							OFFSET 0.000000 9.175140 0.000000
						}
					}
				}
				JOINT LHoodieString
				{
					OFFSET 5.250500 16.397697 3.089900
					CHANNELS 3 Xrotation Yrotation Zrotation
					JOINT LHoodieString1
					{
						OFFSET 0.257700 -6.364304 3.694600
						CHANNELS 3 Xrotation Yrotation Zrotation
						JOINT LHoodieString2
						{
							OFFSET 0.000000 -9.643799 2.679100
							CHANNELS 3 Xrotation Yrotation Zrotation
							End Site
							{
								OFFSET 0.000000 10.009018 0.000000
							}
						}
					}
				}
				JOINT RHoodieString
				{
					OFFSET -5.250500 16.397697 3.089900
					CHANNELS 3 Xrotation Yrotation Zrotation
					JOINT RHoodieString1
					{
						OFFSET -0.257700 -6.364304 3.694600
						CHANNELS 3 Xrotation Yrotation Zrotation
						JOINT RHoodieString2
						{
							OFFSET 0.000000 -9.643799 2.679100
							CHANNELS 3 Xrotation Yrotation Zrotation
							End Site
							{
								OFFSET 0.000000 10.009018 0.000000
							}
						}
					}
				}
			}
			JOINT LBackpack_Strap
			{
				OFFSET 15.223200 -7.719803 -6.610900
				CHANNELS 3 Xrotation Yrotation Zrotation
				End Site
				{
					OFFSET 0.000000 16.040596 0.000000
				}
			}
			JOINT RBackpack_Strap
			{
				OFFSET -15.223000 -7.719803 -6.610900
				CHANNELS 3 Xrotation Yrotation Zrotation
				End Site
				{
					OFFSET 0.000000 16.040596 0.000000
				}
			}
		}
	}
	JOINT BoyFacialAnim_Joint
	{
		OFFSET 1.000000 -82.208099 -1.550900
		CHANNELS 3 Xrotation Yrotation Zrotation
		End Site
		{
			OFFSET 0.000000 30.012791 0.000000
		}
	}
}
MOTION
Frames: 4
Frame Time: 0.016667
0.051195 33.585907 3.507484 72.664935 -1.756160 -1.214728 0.000001 -0.000000 -0.000000 -3.040116 11.184619 2.577456 10.161080 4.728088 1.826325 -31.386652 0.348393 -0.973606 -0.000003 -0.000000 -0.000000 -0.000003 -0.000000 -0.000000 0.000000 0.000000 0.000000 -6.434334 -7.633634 -1.581906 14.896014 2.927212 -1.176607 -23.764777 0.034240 -0.084231 0.000002 -0.000000 -0.000000 0.000002 -0.000000 -0.000000 0.000001 0.000000 -0.000000 0.752270 -0.174020 0.436860 1.989892 -0.361037 0.703952 1.989558 -0.369635 0.705793 -9.204231 -0.704416 3.164578 0.129147 2.292099 -4.360972 -0.000001 0.000000 0.000000 -0.000001 0.000000 0.000000 -0.000001 0.000000 0.000000 1.107201 -1.022678 0.366518 -53.198154 -52.390201 -60.733789 -0.000001 -9.465317 0.000002 10.586329 -19.105158 86.700420 -1.335219 3.247019 11.085639 10.126219 -4.458081 7.651893 -0.000001 -0.000002 -0.000001 -4.827143 -13.400619 -17.576715 0.100493 1.081544 -10.616099 0.000001 0.000000 -0.000002 -3.573186 -14.167610 -13.089252 0.077339 0.949778 -9.309782 0.000001 -0.000001 -0.000000 0.216130 -14.772485 -0.362657 0.436528 2.220948 -22.237342 0.000000 -0.000001 -0.000000 -11.565774 -10.889313 18.851093 1.477786 3.890878 -41.581949 -0.000002 0.000002 -0.000002 0.000001 0.000000 0.000001 1.721897 3.722433 14.170255 -57.852945 62.510417 58.216339 0.000002 10.622203 -0.000021 22.462822 6.417965 -82.516745 -0.201457 3.035663 -7.196445 8.074862 6.487032 -14.042686 -0.000001 0.000000 -0.000001 -3.768174 8.510243 18.931744 0.000004 0.000011 0.000007 -0.000000 0.000000 0.000004 -0.238709 9.461333 1.884922 0.696245 -2.451519 31.705424 0.000000 0.000000 0.000002 -0.642249 6.921379 4.616468 0.435031 -1.967188 24.937692 -0.000001 -0.000001 0.000000 -8.414058 -1.159942 -7.808907 0.946328 -2.816025 37.143658 -0.000000 -0.000001 0.000004 -0.000001 0.000001 -0.000002 -0.000001 -0.000000 -0.000000 -0.000001 -0.000000 -0.000000 -0.000001 -0.000000 -0.000000 -0.000001 -0.000000 -0.000000 -0.000001 -0.000000 -0.000000 -0.000001 -0.000000 -0.000000 -0.000001 -0.000000 -0.000000 -0.000001 -0.000000 -0.000000 -0.000001 -0.000000 -0.000000 -0.000001 -0.000000 -0.000000 -0.000001 -0.000000 -0.000000 0.000001 -0.000000 -0.000000 
0.039064 33.620407 3.490669 72.691955 -1.762681 -1.217982 -0.000001 -0.000000 -0.000000 -3.075681 11.173285 2.582170 10.117529 4.790847 1.834315 -31.403946 0.349539 -0.974894 0.000002 -0.000001 -0.000000 0.000002 -0.000001 0.000000 -0.000001 -0.000001 -0.000000 -6.480008 -7.626466 -1.560746 14.878611 2.888053 -1.168097 -23.764028 0.041801 -0.112285 -0.000006 0.000000 0.000000 -0.000006 0.000000 0.000000 0.000001 -0.000000 -0.000000 0.763756 -0.171445 0.432795 2.014335 -0.356034 0.696149 2.017245 -0.364457 0.698350 -9.222181 -0.707646 3.170100 0.081698 2.286395 -4.356597 -0.000001 -0.000000 -0.000000 -0.000001 -0.000000 -0.000000 -0.000001 -0.000000 -0.000000 1.106204 -1.019218 0.444195 -53.325790 -52.446011 -60.786150 -0.000010 -9.373373 -0.000006 10.495919 -19.160188 86.594163 -1.335178 3.246649 11.085996 10.147843 -4.457486 7.634727 -0.000000 -0.000002 -0.000001 -4.837820 -13.407057 -17.604550 0.100304 1.080572 -10.606299 0.000001 -0.000000 -0.000002 -3.580292 -14.174213 -13.107834 0.077267 0.949389 -9.306205 -0.000001 0.000000 -0.000002 0.214304 -14.770883 -0.368762 0.436227 2.220159 -22.229303 -0.000001 0.000001 -0.000000 -11.556546 -10.896208 18.883836 1.482256 3.895885 -41.647707 0.000003 0.000001 -0.000002 -0.000000 0.000000 -0.000000 1.692444 3.818572 14.166781 -57.419105 62.383048 57.737693 -0.000009 11.015427 0.000006 22.411401 6.229424 -82.455533 -0.201458 3.035650 -7.196450 8.074866 6.487037 -14.042685 0.000000 -0.000000 0.000003 -3.768111 8.510269 18.931758 -0.000002 -0.000004 0.000004 -0.000000 -0.000000 0.000003 -0.238710 9.461329 1.884914 0.696248 -2.451520 31.705431 -0.000000 0.000000 -0.000000 -0.642249 6.921367 4.616461 0.435027 -1.967172 24.937711 -0.000001 -0.000001 0.000000 -8.414064 -1.159955 -7.808919 0.946323 -2.816007 37.143662 -0.000000 0.000001 -0.000003 0.000001 -0.000000 0.000001 -0.000000 0.000000 -0.000000 -0.000000 0.000000 -0.000000 -0.000000 0.000000 -0.000000 -0.000000 0.000000 -0.000000 -0.000000 0.000000 -0.000000 -0.000000 0.000000 -0.000000 -0.000000 0.000000 -0.000000 -0.000000 0.000000 -0.000000 -0.000000 0.000000 -0.000000 -0.000000 -0.000000 -0.000000 -0.000000 -0.000000 -0.000000 -0.000001 -0.000000 -0.000000 
0.025048 33.659779 3.471954 72.721400 -1.761588 -1.220236 -0.000001 0.000000 0.000000 -3.090220 11.153242 2.576361 10.017298 4.857239 1.857589 -31.393230 0.349845 -0.978875 0.000001 0.000000 0.000000 0.000001 0.000000 0.000000 0.000000 0.000000 0.000000 -6.533558 -7.611821 -1.537824 14.865232 2.841004 -1.163297 -23.761091 0.048245 -0.136186 0.000001 -0.000000 -0.000000 0.000001 -0.000000 -0.000000 0.000000 -0.000000 -0.000000 0.778991 -0.169808 0.425699 2.046986 -0.353058 0.686804 2.059589 -0.360989 0.690020 -9.236199 -0.710649 3.176450 0.030635 2.283028 -4.346893 -0.000000 0.000000 -0.000000 -0.000000 0.000000 -0.000000 -0.000000 0.000000 -0.000000 1.109413 -1.047178 0.617680 -53.300194 -52.427234 -60.726119 -0.000003 -9.495838 0.000003 10.330565 -19.116392 86.488445 -1.335056 3.245435 11.087058 10.172724 -4.455063 7.614910 0.000000 0.000001 -0.000002 -4.849314 -13.415385 -17.633320 0.101660 1.087822 -10.678350 0.000001 0.000000 -0.000002 -3.576247 -14.185635 -13.088187 0.077290 0.949513 -9.307373 0.000000 -0.000000 -0.000000 0.213914 -14.771013 -0.370090 0.436394 2.220581 -22.233885 -0.000000 -0.000000 -0.000000 -11.537952 -10.909906 18.948275 1.491649 3.906415 -41.785861 0.000000 0.000000 -0.000002 -0.000003 0.000000 0.000000 1.608455 4.068151 14.154886 -56.074781 61.951639 56.389226 -0.000002 12.166848 -0.000012 22.338141 5.692529 -82.256603 -0.201455 3.035651 -7.196450 8.074866 6.487047 -14.042699 -0.000001 0.000001 0.000002 -3.767913 8.510314 18.931760 0.000001 0.000004 0.000006 -0.000000 -0.000000 0.000003 -0.238707 9.461318 1.884908 0.696245 -2.451515 31.705434 -0.000000 0.000000 -0.000002 -0.642248 6.921359 4.616448 0.435034 -1.967197 24.937709 -0.000001 -0.000001 0.000004 -8.414066 -1.159959 -7.808919 0.946335 -2.816015 37.143648 0.000001 0.000001 -0.000003 -0.000001 -0.000000 0.000001 0.000000 0.000000 0.000000 0.000000 0.000000 0.000000 0.000000 0.000000 0.000000 0.000000 0.000000 0.000000 0.000000 0.000000 0.000000 0.000000 0.000000 0.000000 0.000000 0.000000 0.000000 0.000000 0.000000 0.000000 0.000000 0.000000 0.000000 -0.000000 -0.000000 0.000000 -0.000000 -0.000000 0.000000 -0.000001 0.000000 0.000000 
0.008957 33.703487 3.451118 72.753959 -1.753904 -1.216766 0.000001 -0.000000 -0.000000 -3.084109 11.122529 2.555997 9.862153 4.923473 1.894719 -31.355445 0.350600 -0.989364 0.000001 -0.000001 0.000000 0.000001 -0.000001 0.000000 0.000000 0.000001 0.000000 -6.599486 -7.590368 -1.518500 14.862640 2.789996 -1.163801 -23.760823 0.052922 -0.153644 -0.000003 0.000000 0.000000 -0.000003 0.000000 0.000000 0.000000 -0.000000 0.000000 0.796879 -0.169427 0.415119 2.085599 -0.352767 0.674647 2.114176 -0.359899 0.679518 -9.245050 -0.712871 3.181724 -0.016084 2.281407 -4.334584 -0.000000 0.000000 0.000000 -0.000000 0.000000 0.000000 -0.000000 0.000000 0.000000 1.118093 -1.112103 0.871085 -53.079678 -52.340337 -60.509220 0.000005 -9.849026 0.000018 10.082051 -18.967709 86.379476 -1.334852 3.243518 11.088836 10.184136 -4.450638 7.605699 -0.000001 -0.000000 -0.000003 -4.864706 -13.431190 -17.667929 0.102162 1.090439 -10.704355 0.000000 -0.000000 -0.000002 -3.587245 -14.183180 -13.124471 0.077375 0.950041 -9.312545 -0.000001 0.000001 -0.000002 0.201489 -14.788796 -0.413981 0.436854 2.221730 -22.245892 -0.000001 0.000000 -0.000000 -11.535579 -10.898807 18.936829 1.498036 3.913505 -41.879541 -0.000000 0.000000 -0.000000 0.000002 -0.000000 -0.000001 1.474309 4.460578 14.127445 -54.128044 61.266510 54.462627 -0.000007 13.832708 0.000006 22.245084 4.915896 -81.969633 -0.201457 3.035654 -7.196446 8.074865 6.487056 -14.042692 -0.000001 0.000000 -0.000000 -3.767596 8.510447 18.931802 0.000000 0.000002 0.000002 -0.000000 0.000000 0.000004 -0.238709 9.461299 1.884907 0.696240 -2.451480 31.705438 -0.000001 -0.000000 0.000003 -0.642246 6.921373 4.616430 0.435029 -1.967180 24.937724 -0.000001 -0.000000 0.000002 -8.414066 -1.159939 -7.808920 0.946327 -2.816024 37.143658 -0.000001 0.000001 -0.000001 0.000000 -0.000000 -0.000001 -0.000000 0.000000 -0.000000 -0.000000 0.000000 -0.000000 -0.000000 0.000000 -0.000000 -0.000000 0.000000 -0.000000 -0.000000 0.000000 -0.000000 -0.000000 0.000000 -0.000000 -0.000000 0.000000 -0.000000 -0.000000 0.000000 -0.000000 -0.000000 0.000000 -0.000000 0.000001 0.000000 -0.000000 0.000001 0.000000 -0.000000 0.000001 -0.000000 -0.000000 
